/* XPM */
static char * nano_new_xpm[] = {
"64 65 14 1",
" 	c None",
".	c #E5E5E5",
"+	c #191919",
"@	c #333333",
"#	c #4C4C4C",
"$	c #000000",
"%	c #00FFFF",
"&	c #666666",
"*	c #7F7F7F",
"=	c #007F7F",
"-	c #999999",
";	c #CCCCCC",
">	c #B2B2B2",
",	c #FFFFFF",
"                                                                ",
"                                                                ",
"                                                                ",
"                                                                ",
"                                                                ",
"                                                                ",
"                                                                ",
"                                                                ",
"                  ........             ...........              ",
"                ..%.,%.%-->          ..%..%>=-;%...             ",
"            .......-=#$$$$*.      ....;-@$$$++++&;..            ",
"         ..%..%-=@$$$$$+$+-.    .%..%@+$+$+$+$$++@%..           ",
"        ..-*#$$$$$$+$+$$+$;.  ....;@$$+$+$$+$++$+$@;.           ",
"       %.#+$$$$$$$$$+$++++%...,%;@+++++$++++$+++++$=..          ",
"       ..=$$$$$+$++$+$+$+&..%..*+@+++++++$++++++++++;.          ",
"       ..*+$$$$$$$+$+++++=...;@+@++++++++++++++++@@@=..         ",
"        ....>-&#++$+++++@>.%-@@@@@@*-...;*@+@+@@@@@@*..         ",
"         %.,%....#+++++@+;;*@@@@#-.,%..%..;@@@@@@@@#=..         ",
"             .%..@+++@+@@;=@###-.%..    .%,-@@@@@#@#*.%         ",
"               %.++++@@@@@@##*%...       ...@@@#####*..         ",
"               .;++@+@@@####>...          .%*#####&&>..         ",
"              ..-++@@@@###=..%.           ..*###&#&#%.          ",
"              .%&++@@@###*...             ..=&#&#&&&;.          ",
"              ..#++@@@##*.%.              ..*&#&&&*=..          ",
"              ..+@+@@##&...               ..=#&&&&&-..          ",
"              .>++@@@@#-%.                ..&##&&&=>..          ",
"              .-++@@@##-,.                .>#&&&&&*;%.          ",
"             %.&+++@@@=>.                .%>###&&&&..           ",
"             ..#++@@@##;.                .,*#&##&&*..           ",
"             %.+++@@@@=..                ..####&#*=..           ",
"             .>++++@@#*.%                .%######&;.%           ",
"            ..-++++@@@*..               ..>@#@###=;.            ",
"            .%#++++@@#>.                ..=#@@#@##..            ",
"            ..@$+++@@@;.                ..#@@@@##=..            ",
"            ..+++++@@@.%                .;@@@@@@#-.%            ",
"            .>$$+++@@#..               ,%>@@@@@@@>..            ",
"            .-+++++@@=,.               ..*++@@@@#;.             ",
"           %.#$$+++@@-..               ..#@++@+@=..             ",
"           ..@+$+++@@>%                .%@+@+@@@&.%             ",
"           ..$$++++@@..                .>++++++@-..             ",
"           .-+$+++@@@..               ..-+++@+@@;.              ",
"          %.*+$++++@=..               %.&@++++@@..              ",
"          ..=$+$++@@*.%               ..++++@@+=..              ",
"          ..+$$+++@@>..               .;++++++@=..              ",
"          ..++++++@@;.               ..=@++++@@>.               ",
"          .-$$$+++@@..               ..&++++++@;.               ",
"         ..=+++++@@=.%               .%#+++@+@@.%               ",
"         ..#$$++++@*..               .;++++++@#..               ",
"         .%@+$+++@@-.               ..>++++@@@=..               ",
"         ..$$++++@@>.               %.*++++++@=..               ",
"         .-+$+++@@@.%               ..=++++@+@@..               ",
"         .*$+$+++@#..               ..&+++++@@#-.... ....       ",
"        ..=$++++@@=..               .%@+++@+@@@=>%...%...;      ",
"        ..+$$+++@#=..               ..&+++@+@@@#&*-;;;--*>.     ",
"        .%+$++++@@>.                ..=++++@@@##&&=**=*=*;.     ",
"        .-$+$+++@@;.                ..>++++@@@##&&&***-*=;.     ",
"       ..*$+$++@@@.%                 ..=++@+@@##&&****-;..      ",
"       ..#$$++++@&..                 ...*@+@@@##&&*-;..%.       ",
"        ........%,.                   ....>>=**->;..%,.         ",
"         %.%.%....                      .%.......%...           ",
"                                           .%.%                 ",
"                                                                ",
"                                                                ",
"                                                                ",
"                                                                "};
